<mxfile host="app.diagrams.net" modified="2024-09-23T22:54:41.724Z" agent="Mozilla/5.0 (Windows NT 10.0; Win64; x64) AppleWebKit/537.36 (KHTML, like Gecko) Chrome/128.0.0.0 Safari/537.36" version="23.1.1" etag="H5_vGnnpIbLsE9AXF5_4" type="github">
  <diagram name="PÃ¡gina-1" id="qKHDh8DLJSiiZXxD2Wy4">
    <mxGraphModel>
      <root>
        <mxCell id="0" />
        <mxCell id="1" parent="0" />
      </root>
    </mxGraphModel>
  </diagram>
</mxfile>
